<?xml version="1.0" encoding="UTF-8" standalone="no"?>
<!-- Created with Inkscape (http://www.inkscape.org/) -->

<svg
   width="161.0069mm"
   height="112.86745mm"
   viewBox="0 0 161.0069 112.86745"
   version="1.1"
   id="svg1"
   xml:space="preserve"
   xmlns="http://www.w3.org/2000/svg"
   xmlns:svg="http://www.w3.org/2000/svg"><defs
     id="defs1"><linearGradient
       id="swatch1"><stop
         style="stop-color:#ffffff;stop-opacity:1;"
         offset="0"
         id="stop1" /></linearGradient></defs><g
     id="layer1"
     transform="translate(-25.986033,-47.586761)"><path
       id="path1"
       style="fill:#000000"
       d="m 103.53368,47.648306 c -13.980084,0.727396 -27.059729,7.877085 -34.669212,19.293396 -1.788527,2.683281 -2.797851,4.617046 -4.350639,8.334375 -0.8749,2.094487 -1.657603,3.6045 -1.891874,3.65094 -0.219735,0.04356 -2.904979,-1.585387 -5.967078,-3.620451 -3.062098,-2.035064 -8.464107,-5.454388 -12.004952,-7.597985 -3.540844,-2.143597 -8.335141,-5.076825 -10.653613,-6.518466 -6.4358,-4.001823 -7.262418,-4.315629 -7.868771,-2.98483 -0.250945,0.550763 -0.191783,0.859527 0.369487,1.918229 0.367921,0.693993 2.056247,3.881314 3.751709,7.082772 1.695463,3.201458 6.016279,11.714428 9.601481,18.917712 3.585202,7.20327 7.050861,13.930302 7.701339,14.948952 1.652007,2.58704 5.052544,5.99105 7.799007,7.80625 1.27721,0.84414 3.569442,2.0467 5.093746,2.6727 l 2.771407,1.13844 0.685229,2.26136 c 3.139798,10.36413 5.765011,15.68285 10.890292,22.06325 8.062517,10.03691 20.512348,20.15752 28.243242,22.9588 1.79363,0.64996 4.64689,0.6393 6.797,-0.0248 3.43144,-1.05987 9.50759,-4.5799 13.70821,-7.94112 3.19037,-2.55285 8.25552,-7.2605 10.8536,-10.08827 7.43757,-8.09509 10.45578,-13.1312 13.50254,-22.52834 0.8603,-2.65343 1.71525,-5.27918 1.89962,-5.83479 0.30583,-0.92168 0.48559,-1.06274 2.05466,-1.61075 4.55261,-1.59005 8.84994,-4.49889 11.44478,-7.74734 2.54991,-3.19221 3.4892,-4.823982 7.81451,-13.576432 4.10753,-8.311751 9.47173,-18.848136 13.82861,-27.162164 2.23126,-4.257804 2.49748,-5.25202 1.50637,-5.619295 -0.97466,-0.361177 -2.07609,0.195193 -10.27379,5.188314 -4.28116,2.607604 -8.85558,5.38278 -10.16527,6.167065 -1.30969,0.784284 -5.22049,3.306758 -8.69095,5.605343 -3.47045,2.298585 -6.45665,4.179073 -6.63577,4.179073 -0.17911,0 -0.89002,-1.339453 -1.57975,-2.976562 -3.06309,-7.27038 -7.09784,-12.890708 -12.46228,-17.360181 -7.83387,-6.526919 -16.58693,-10.05434 -27.06967,-10.907861 -2.02058,-0.16452 -4.03607,-0.191247 -6.03322,-0.08733 z m 24.09878,16.276009 c 1.86562,-0.06584 3.66053,0.263439 5.32629,1.259355 l 0.0315,0.0186 c 0.15511,0.09369 0.30466,0.190514 0.44907,0.290421 0.76968,0.532941 1.38752,1.152732 1.88567,1.840715 0.99561,1.375896 1.51159,3.023623 1.80351,4.789888 0.056,0.338931 0.1065,0.702243 0.14934,1.067635 0.30297,2.58535 0.30282,5.830073 0.30282,9.69915 v 32.344291 c 0,6.07663 -5.48338,11.00294 -12.24783,11.00294 -6.76444,0 -12.24834,-4.92631 -12.24834,-11.00294 0,-6.07664 5.4839,-11.00296 12.24834,-11.00296 2.42824,0 4.69147,0.63485 6.59495,1.72961 V 86.823168 l -32.033194,11.51093 v 23.671432 c 0,6.07663 -5.48391,11.00295 -12.248349,11.00295 -6.764442,0 -12.247831,-4.92632 -12.247831,-11.00295 0,-6.07663 5.483389,-11.00295 12.247831,-11.00295 2.428239,0 4.691189,0.63485 6.594949,1.72961 V 85.809798 c -1.1e-4,-2.071475 1.7e-4,-3.826802 0.17466,-5.269959 0.18569,-1.535464 0.58944,-2.94939 1.56166,-4.261756 0.9722,-1.312331 2.26846,-2.193196 3.77342,-2.939872 1.414664,-0.701801 3.216874,-1.379456 5.343864,-2.179195 l 7.89203,-2.967261 c 4.53795,-1.706397 8.239,-3.097811 11.22412,-3.781164 1.1575,-0.264963 2.30213,-0.446772 3.42149,-0.486276 z" /></g></svg>
