<?xml version="1.0" encoding="UTF-8" standalone="no"?>
<!-- Uploaded to: SVG Repo, www.svgrepo.com, Generator: SVG Repo Mixer Tools -->

<svg
   width="660"
   height="660"
   viewBox="0 0 844.8 844.8"
   version="1.1"
   id="svg2"
   xml:space="preserve"
   xmlns="http://www.w3.org/2000/svg"
   xmlns:svg="http://www.w3.org/2000/svg"><defs
     id="defs2" /><path
     fill="#000000"
     d="m 780.8,448 v 256 c 0,70.69245 -57.30755,128 -128,128 h -512 C 70.107553,832 12.800003,774.69245 12.800003,704 V 192 c 0,-70.69245 57.30755,-128 127.999997,-128 h 256"
     id="path1"
     style="fill:none;fill-opacity:1;stroke:#000000;stroke-width:25.6;stroke-linecap:round;stroke-dasharray:none;stroke-opacity:1" /><path
     id="path2"
     style="fill:#000000;fill-opacity:1;stroke:none;stroke-width:12.8;stroke-dasharray:none;stroke-opacity:1"
     d="m 652.8,0 c -106.03874,0 -192,85.96133 -192,192 0,80.91897 50.05888,150.14724 120.8975,178.405 -3.58384,2.33806 -7.29494,4.77382 -10.875,7.145 -12.54157,8.30663 -23.33273,15.1025 -23.98,15.1025 -0.64727,0 -3.21493,-4.83881 -5.7075,-10.755 -11.06939,-26.2737 -25.65153,-46.58571 -45.0375,-62.7375 -28.31008,-23.58699 -59.94242,-36.33304 -97.825,-39.4175 -58.41585,-4.75631 -115.66239,22.25497 -147.09,69.405 -6.46339,9.69684 -10.11103,16.68632 -15.7225,30.12 -3.16171,7.56906 -5.99088,13.02718 -6.8375,13.195 -0.79407,0.15742 -10.49668,-5.73319 -21.5625,-13.0875 -11.06582,-7.35433 -30.58909,-19.70847 -43.385,-27.455 -12.79591,-7.74653 -30.11901,-18.3477 -38.4975,-23.5575 -23.2577,-14.46179 -26.246257,-15.59424 -28.437497,-10.785 -0.90686,1.99035 -0.69332,3.10657 1.335,6.9325 1.32959,2.50796 7.430437,14.02556 13.557497,25.595 6.12707,11.56943 21.74129,42.33379 34.6975,68.365 12.95621,26.03121 25.47931,50.3413 27.83,54.0225 5.97003,9.34904 18.26233,21.65024 28.1875,28.21 4.61559,3.05056 12.89896,7.39526 18.4075,9.6575 l 10.015,4.115 2.475,8.17 c 11.3466,37.4539 20.83579,56.6775 39.3575,79.735 29.13633,36.27139 74.12707,72.84423 102.065,82.9675 6.48181,2.34879 16.78992,2.30992 24.56,-0.09 12.40054,-3.83017 34.36232,-16.55072 49.5425,-28.6975 11.52932,-9.22549 29.83111,-26.2385 39.22,-36.4575 26.87794,-29.25404 37.78712,-47.45311 48.7975,-81.4125 3.10899,-9.58897 6.19618,-19.07714 6.8625,-21.085 1.10517,-3.33077 1.75715,-3.8421 7.4275,-5.8225 16.45223,-5.74609 31.98027,-16.25828 41.3575,-27.9975 9.21484,-11.536 12.60924,-17.43038 28.24,-49.06 7.67734,-15.5354 16.56994,-33.22186 25.545,-50.835 2.18439,0.0736 4.3777,0.11 6.58,0.11 106.03874,0 192,-85.96133 192,-192 C 844.8,85.96133 758.83874,0 652.8,0 Z" /></svg>
